<svg width="22" height="23" viewBox="0 0 22 23" fill="none" xmlns="http://www.w3.org/2000/svg">
<path d="M11.1778 0C5.50816 0 0.895508 5.01005 0.895508 11.1682V15.7952C0.895508 16.9388 1.81783 17.8691 2.95197 17.8691H3.9802C4.25291 17.8691 4.51444 17.7514 4.70727 17.542C4.9001 17.3325 5.00844 17.0485 5.00844 16.7523V11.0085C5.00844 10.7123 4.9001 10.4282 4.70727 10.2188C4.51444 10.0093 4.25291 9.89166 3.9802 9.89166H3.04657C3.61827 5.56957 7.04228 2.23364 11.1778 2.23364C15.3134 2.23364 18.7374 5.56957 19.3091 9.89166H18.3755C18.1027 9.89166 17.8412 10.0093 17.6484 10.2188C17.4555 10.4282 17.3472 10.7123 17.3472 11.0085V17.8691C17.3472 19.1009 16.4249 20.1027 15.2908 20.1027H13.2343V18.9859H9.12136V22.3364H15.2908C17.559 22.3364 19.4037 20.3328 19.4037 17.8691C20.5378 17.8691 21.4601 16.9388 21.4601 15.7952V11.1682C21.4601 5.01005 16.8475 0 11.1778 0Z" fill="#26BE42"/>
</svg>
