<svg width="32" height="34" viewBox="0 0 32 34" fill="none" xmlns="http://www.w3.org/2000/svg">
<path d="M25.877 12.6898C25.877 7.58038 22.0982 3.47607 17.394 3.47607C12.6899 3.47607 8.91113 7.58038 8.91113 12.6898C8.91113 16.2497 10.8005 19.3907 13.5382 20.8984V27.7669C13.5382 28.2276 13.8852 28.6045 14.3093 28.6045H20.4787C20.9029 28.6045 21.2499 28.2276 21.2499 27.7669V20.8984C24.0261 19.3907 25.877 16.2916 25.877 12.6898Z" fill="#FAC546"/>
<path d="M20.4791 29.0234H14.3097C13.6542 29.0234 13.1529 28.479 13.1529 27.767V21.1498C10.2996 19.4746 8.52588 16.2498 8.52588 12.6899C8.52588 7.37108 12.4974 3.05737 17.3944 3.05737C22.2913 3.05737 26.2629 7.37108 26.2629 12.6899C26.2629 16.2498 24.4892 19.4746 21.6358 21.1498V27.767C21.6358 28.479 21.1346 29.0234 20.4791 29.0234ZM17.3944 3.89499C12.9216 3.89499 9.29705 7.83177 9.29705 12.6899C9.29705 15.9985 10.9936 19.0139 13.7313 20.5216C13.847 20.6054 13.9241 20.731 13.9241 20.8986V27.767C13.9241 28.0183 14.0783 28.1858 14.3097 28.1858H20.4791C20.7104 28.1858 20.8647 28.0183 20.8647 27.767V20.8986C20.8647 20.731 20.9418 20.6054 21.0575 20.5216C23.7951 19.0139 25.4917 15.9985 25.4917 12.6899C25.4917 7.83177 21.8672 3.89499 17.3944 3.89499Z" fill="#231C1C"/>
<path d="M21.2498 27.7669C21.2498 28.2276 20.9028 28.6045 20.4787 28.6045H14.3093C13.8851 28.6045 13.5381 28.2276 13.5381 27.7669V24.4165C13.5381 23.9558 13.8851 23.5789 14.3093 23.5789H20.4787C20.9028 23.5789 21.2498 23.9558 21.2498 24.4165V27.7669Z" fill="#C89005"/>
<path d="M20.479 29.0232H14.3096C13.6541 29.0232 13.1528 28.4788 13.1528 27.7668V24.4163C13.1528 23.7044 13.6541 23.1599 14.3096 23.1599H20.479C21.1345 23.1599 21.6357 23.7044 21.6357 24.4163V27.7668C21.6357 28.4788 21.1345 29.0232 20.479 29.0232ZM14.3096 23.9975C14.0782 23.9975 13.924 24.165 13.924 24.4163V27.7668C13.924 28.0181 14.0782 28.1856 14.3096 28.1856H20.479C20.7103 28.1856 20.8646 28.0181 20.8646 27.7668V24.4163C20.8646 24.165 20.7103 23.9975 20.479 23.9975H14.3096Z" fill="#231C1C"/>
<path d="M13.4515 25.2684L19.634 23.1689L19.8638 23.9684L13.6817 26.0679L13.4515 25.2684ZM13.4419 27.7829L21.1613 25.2701L21.3827 26.0721L13.6632 28.585L13.4419 27.7829Z" fill="#231C1C"/>
<path d="M15.0806 28.6045H15.8517V29.4421H15.0806V28.6045Z" fill="#231C1C"/>
<path d="M18.5508 28.6045H19.322V29.4421H18.5508V28.6045Z" fill="#231C1C"/>
<path d="M17.3942 25.2539C16.3146 25.2539 15.4663 24.3326 15.4663 23.1599V16.459C15.4663 16.3334 15.4663 15.9564 15.7748 15.8308C16.1218 15.7051 16.3146 15.9983 16.546 16.3752C16.7387 16.6684 17.1243 17.2966 17.3942 17.2966C17.6642 17.2966 18.0497 16.6684 18.2425 16.3752C18.4739 15.9983 18.6667 15.7051 19.0137 15.8308C19.3222 15.9564 19.3222 16.3334 19.3222 16.459V23.1599C19.3222 24.3326 18.4739 25.2539 17.3942 25.2539ZM16.2375 17.3385V23.1599C16.2375 23.8719 16.7387 24.4163 17.3942 24.4163C18.0497 24.4163 18.551 23.8719 18.551 23.1599V17.3385C18.2425 17.7573 17.8569 18.1342 17.3942 18.1342C16.9315 18.1342 16.546 17.7573 16.2375 17.3385Z" fill="#231C1C"/>
</svg>
