<svg width="24" height="25" viewBox="0 0 24 25" fill="none" xmlns="http://www.w3.org/2000/svg">
<path d="M22.1774 10.469C21.8293 10.1902 21.3946 9.84188 21.3375 9.61224C21.2755 9.36011 21.4968 8.80464 21.6758 8.35917C21.9817 7.59323 22.2984 6.80165 21.9473 6.14146C21.5912 5.47272 20.7946 5.37552 20.0235 5.28153C19.5849 5.2281 19.038 5.1619 18.8738 4.98349C18.7095 4.80507 18.6486 4.21218 18.5994 3.73467C18.5128 2.89717 18.4223 2.03188 17.8076 1.64515C17.1989 1.26163 16.471 1.6067 15.7668 1.93999C15.3576 2.13333 14.8482 2.37369 14.6131 2.30749C14.4007 2.2466 14.08 1.77445 13.8233 1.39518C13.3798 0.741356 12.8762 0 12.1504 0C11.4245 0 10.9209 0.741356 10.4784 1.39408C10.2217 1.77224 9.90102 2.2444 9.68959 2.30639C9.45746 2.37154 8.94605 2.13333 8.53591 1.93889C7.8317 1.6056 7.1029 1.26163 6.49412 1.64405C5.87841 2.03078 5.78893 2.89607 5.70239 3.73357C5.6532 4.21003 5.59225 4.80397 5.42799 4.98238C5.26373 5.1608 4.71787 5.227 4.27823 5.28043C3.50716 5.37442 2.71051 5.47272 2.35446 6.14036C2.00237 6.79949 2.31905 7.59108 2.62591 8.35702C2.80391 8.80248 3.02622 9.35691 2.96426 9.61009C2.9082 9.84083 2.47349 10.1891 2.12431 10.4679C1.5224 10.9497 0.839844 11.4966 0.839844 12.285C0.839844 13.0734 1.5224 13.6203 2.12334 14.101C2.47151 14.3799 2.90622 14.7281 2.96329 14.9578C3.02525 15.2099 2.80396 15.7654 2.62494 16.2108C2.31905 16.9768 2.00237 17.7684 2.35349 18.4285C2.70954 19.0973 3.5062 19.1945 4.27727 19.2885C4.71593 19.3419 5.26276 19.4081 5.42702 19.5865C5.59129 19.7649 5.65223 20.3589 5.70143 20.8353C5.78796 21.6728 5.87749 22.5381 6.49218 22.9249C7.09903 23.3062 7.82879 22.9633 8.53398 22.63C8.94314 22.4367 9.45456 22.1963 9.68765 22.2625C9.9001 22.3234 10.2207 22.7956 10.4774 23.1748C10.921 23.8286 11.4246 24.57 12.1504 24.57C12.8763 24.57 13.3798 23.8286 13.8234 23.1759C14.0801 22.7977 14.4007 22.3256 14.6122 22.2636C14.8433 22.1941 15.3557 22.4366 15.7658 22.6311C16.471 22.9633 17.1978 23.3083 17.8076 22.9259C18.4233 22.5392 18.5128 21.6739 18.5994 20.8364C18.6475 20.3589 18.7095 19.766 18.8728 19.5876C19.036 19.4092 19.5829 19.343 20.0226 19.2895C20.7936 19.1955 21.5903 19.0972 21.9463 18.4296C22.2984 17.7705 21.9817 16.9789 21.6749 16.2129C21.4969 15.7675 21.2746 15.213 21.3365 14.9599C21.3926 14.7291 21.8273 14.3809 22.1765 14.102C22.7784 13.6203 23.4609 13.0733 23.4609 12.2849C23.4609 11.4966 22.7783 10.9497 22.1774 10.469ZM21.5942 13.2422C21.0729 13.6598 20.533 14.0914 20.3874 14.6833C20.236 15.2964 20.5094 15.979 20.7739 16.6392C20.9431 17.0623 21.1988 17.7011 21.0965 17.8944C20.9893 18.0964 20.3421 18.1754 19.9143 18.2277C19.2613 18.3079 18.5856 18.3901 18.1784 18.8324C17.7712 19.2747 17.6965 20.0075 17.6227 20.7168C17.5745 21.1815 17.5017 21.8844 17.3159 22.0009C17.1368 22.1141 16.5487 21.8342 16.1592 21.6505C15.5514 21.3631 14.9239 21.0651 14.3584 21.2307C13.8135 21.3888 13.4162 21.9752 13.0316 22.5414C12.771 22.9228 12.3795 23.5018 12.1504 23.5018C11.9212 23.5018 11.5288 22.9239 11.2691 22.5414C10.8846 21.9752 10.4872 21.3888 9.94233 21.2307C9.8302 21.1976 9.7161 21.1837 9.60006 21.1837C9.12995 21.1837 8.62932 21.4198 8.14247 21.6526C7.75203 21.8363 7.16288 22.1151 6.98585 22.003C6.79996 21.8855 6.72717 21.1836 6.67996 20.7189C6.60619 20.0096 6.53044 19.2757 6.12327 18.8334C5.71609 18.3912 5.0404 18.3089 4.38736 18.2288C3.95952 18.1765 3.31238 18.0974 3.20515 17.8955C3.10188 17.7022 3.35858 17.0623 3.52773 16.6392C3.7913 15.979 4.06473 15.2964 3.91425 14.6833C3.76871 14.0914 3.22875 13.6599 2.70747 13.2422C2.35635 12.9591 1.82326 12.5328 1.82326 12.285C1.82326 12.0371 2.35635 11.6109 2.70548 11.3289C3.22677 10.9112 3.76672 10.4796 3.91227 9.8878C4.06372 9.27464 3.79033 8.59202 3.52574 7.93183C3.35659 7.5088 3.10086 6.87 3.20316 6.67661C3.31137 6.47471 3.95754 6.39564 4.38538 6.34331C5.03842 6.26319 5.7141 6.18092 6.12128 5.73866C6.52846 5.2964 6.60421 4.56251 6.67797 3.8532C6.72615 3.38851 6.79895 2.68561 6.98483 2.56913C7.16482 2.45802 7.75198 2.73578 8.14146 2.91951C8.74928 3.20578 9.37577 3.50278 9.94228 3.33933C10.4872 3.18125 10.8845 2.59477 11.2691 2.02858C11.5297 1.64721 11.9221 1.06819 12.1503 1.06819C12.3785 1.06819 12.7709 1.64721 13.0306 2.02642C13.4151 2.59262 13.8125 3.17909 14.3574 3.33718C14.9229 3.50278 15.5504 3.20473 16.1582 2.91735C16.5477 2.73363 17.1358 2.45586 17.3138 2.56698C17.4997 2.68451 17.5725 3.38635 17.6207 3.85105C17.6945 4.56035 17.7702 5.29425 18.1774 5.73651C18.5846 6.17877 19.2602 6.26104 19.9133 6.34116C20.3411 6.39349 20.9883 6.47256 21.0955 6.67446C21.1988 6.8678 20.9421 7.5077 20.7729 7.93073C20.5094 8.59092 20.2359 9.27354 20.3864 9.8867C20.5319 10.4785 21.0719 10.9101 21.5932 11.3278C21.9443 11.6109 22.4774 12.0371 22.4774 12.285C22.4774 12.5328 21.9443 12.9591 21.5942 13.2422Z" fill="black"/>
<path d="M19.0911 9.61758L14.917 9.11443L12.5811 4.54867C12.408 4.21001 11.8946 4.21001 11.7215 4.54867L9.38563 9.11443L5.21153 9.61758C5.02366 9.64107 4.86336 9.77887 4.8014 9.97226C4.73847 10.1656 4.7837 10.3814 4.91744 10.5267L8.17391 14.0637L7.24254 19.124C7.20515 19.3281 7.27993 19.5374 7.43433 19.6603C7.58974 19.7842 7.79628 19.797 7.96345 19.6955L12.1503 17.1691L16.3372 19.6955C16.4119 19.7404 16.4945 19.7628 16.5762 19.7628C16.6785 19.7628 16.7807 19.7286 16.8683 19.6603C17.0227 19.5374 17.0975 19.328 17.0601 19.124L16.1287 14.0637L19.3851 10.5266C19.5189 10.3814 19.5642 10.1655 19.5012 9.97221C19.4382 9.77782 19.2789 9.64002 19.0911 9.61758ZM15.2455 13.5103C15.1294 13.6375 15.0783 13.818 15.1107 13.9932L15.8857 18.2011L12.3893 16.0913C12.3146 16.0464 12.232 16.024 12.1503 16.024C12.0687 16.024 11.9861 16.0464 11.9113 16.0913L8.41489 18.2011L9.18992 13.9932C9.22141 13.818 9.17125 13.6364 9.05517 13.5103L6.33672 10.5566L9.7456 10.1453C9.90396 10.1261 10.0436 10.0257 10.1213 9.87397L12.1503 5.9075L14.1793 9.87397C14.257 10.0246 14.3967 10.1261 14.555 10.1453L17.9639 10.5566L15.2455 13.5103Z" fill="#BCAA50"/>
</svg>
